{
  "accessors": [
    {
      "bufferView": 1,
      "componentType": 5126,
      "count": 828,
      "max": [
        1.0,
        1.0,
        1.0
      ],
      "min": [
        -1.0,
        -1.0,
        -0.9063100218772888
      ],
      "type": "VEC3"
    },
    {
      "bufferView": 1,
      "byteOffset": 9936,
      "componentType": 5126,
      "count": 828,
      "max": [
        0.9952541589736938,
        0.9952541589736938,
        0.9990411996841431
      ],
      "min": [
        -0.9952541589736938,
        -0.9952541589736938,
        -0.8862897157669067
      ],
      "type": "VEC3"
    },
    {
      "bufferView": 0,
      "componentType": 5125,
      "count": 1188,
      "type": "SCALAR"
    },
    {
      "bufferView": 1,
      "byteOffset": 19872,
      "componentType": 5126,
      "count": 864,
      "max": [
        0.9961900115013123,
        0.9961900115013123,
        0.9961900115013123
      ],
      "min": [
        -0.9961900115013123,
        -0.9961900115013123,
        -0.9396899938583374
      ],
      "type": "VEC3"
    },
    {
      "bufferView": 1,
      "byteOffset": 30240,
      "componentType": 5126,
      "count": 864,
      "max": [
        0.9877355098724365,
        0.9877363443374634,
        0.9913806915283203
      ],
      "min": [
        -0.9877368211746216,
        -0.9877355098724365,
        -0.9233617782592773
      ],
      "type": "VEC3"
    },
    {
      "bufferView": 0,
      "byteOffset": 4752,
      "componentType": 5125,
      "count": 1296,
      "type": "SCALAR"
    },
    {
      "bufferView": 1,
      "byteOffset": 40608,
      "componentType": 5126,
      "count": 864,
      "max": [
        0.9848099946975708,
        0.9848099946975708,
        0.9848099946975708
      ],
      "min": [
        -0.9848099946975708,
        -0.9848099946975708,
        -0.9659299850463867
      ],
      "type": "VEC3"
    },
    {
      "bufferView": 1,
      "byteOffset": 50976,
      "componentType": 5126,
      "count": 864,
      "max": [
        0.9727551341056824,
        0.9727551341056824,
        0.9761223196983337
      ],
      "min": [
        -0.9727551341056824,
        -0.9727551341056824,
        -0.9533878564834595
      ],
      "type": "VEC3"
    },
    {
      "bufferView": 0,
      "byteOffset": 9936,
      "componentType": 5125,
      "count": 1296,
      "type": "SCALAR"
    },
    {
      "bufferView": 1,
      "byteOffset": 61344,
      "componentType": 5126,
      "count": 864,
      "max": [
        0.9848099946975708,
        0.9848099946975708,
        0.9659299850463867
      ],
      "min": [
        -0.9848099946975708,
        -0.9848099946975708,
        -0.9848099946975708
      ],
      "type": "VEC3"
    },
    {
      "bufferView": 1,
      "byteOffset": 71712,
      "componentType": 5126,
      "count": 864,
      "max": [
        0.9727551341056824,
        0.9727530479431152,
        0.9533878564834595
      ],
      "min": [
        -0.9727530479431152,
        -0.9727551341056824,
        -0.9761223196983337
      ],
      "type": "VEC3"
    },
    {
      "bufferView": 0,
      "byteOffset": 15120,
      "componentType": 5125,
      "count": 1296,
      "type": "SCALAR"
    },
    {
      "bufferView": 1,
      "byteOffset": 82080,
      "componentType": 5126,
      "count": 864,
      "max": [
        0.9961900115013123,
        0.9961900115013123,
        0.9396899938583374
      ],
      "min": [
        -0.9961900115013123,
        -0.9961900115013123,
        -0.9961900115013123
      ],
      "type": "VEC3"
    },
    {
      "bufferView": 1,
      "byteOffset": 92448,
      "componentType": 5126,
      "count": 864,
      "max": [
        0.9877355098724365,
        0.9877363443374634,
        0.9233617782592773
      ],
      "min": [
        -0.9877355098724365,
        -0.9877355098724365,
        -0.9913806915283203
      ],
      "type": "VEC3"
    },
    {
      "bufferView": 0,
      "byteOffset": 20304,
      "componentType": 5125,
      "count": 1296,
      "type": "SCALAR"
    },
    {
      "bufferView": 1,
      "byteOffset": 102816,
      "componentType": 5126,
      "count": 828,
      "max": [
        1.0,
        1.0,
        0.9063100218772888
      ],
      "min": [
        -1.0,
        -1.0,
        -1.0
      ],
      "type": "VEC3"
    },
    {
      "bufferView": 1,
      "byteOffset": 112752,
      "componentType": 5126,
      "count": 828,
      "max": [
        0.9952541589736938,
        0.9952541589736938,
        0.8862897157669067
      ],
      "min": [
        -0.9952541589736938,
        -0.9952541589736938,
        -0.9990411996841431
      ],
      "type": "VEC3"
    },
    {
      "bufferView": 0,
      "byteOffset": 25488,
      "componentType": 5125,
      "count": 1188,
      "type": "SCALAR"
    }
  ],
  "asset": {
    "extras": {
      "author": "chandlerklebs (https://sketchfab.com/chandlerklebs)",
      "license": "CC-BY-4.0 (http://creativecommons.org/licenses/by/4.0/)",
      "source": "https://sketchfab.com/3d-models/uv-sphere-36x36-6-color-horizontal-608afae01a8a44ff9bcc103b44f3a306",
      "title": "UV Sphere 36x36-6-color-horizontal"
    },
    "generator": "Sketchfab-12.66.0",
    "version": "2.0"
  },
  "bufferViews": [
    {
      "buffer": 0,
      "byteLength": 30240,
      "name": "floatBufferViews",
      "target": 34963
    },
    {
      "buffer": 0,
      "byteLength": 122688,
      "byteOffset": 30240,
      "byteStride": 12,
      "name": "floatBufferViews",
      "target": 34962
    }
  ],
  "buffers": [
    {
      "byteLength": 152928,
      "uri": "scene.bin"
    }
  ],
  "materials": [
    {
      "doubleSided": true,
      "name": "material",
      "pbrMetallicRoughness": {
        "baseColorFactor": [
          1.0,
          0.0,
          0.0,
          1.0
        ],
        "metallicFactor": 0.0,
        "roughnessFactor": 0.6
      }
    },
    {
      "doubleSided": true,
      "name": "Yellow",
      "pbrMetallicRoughness": {
        "baseColorFactor": [
          1.0,
          1.0,
          0.0,
          1.0
        ],
        "metallicFactor": 0.0,
        "roughnessFactor": 0.6
      }
    },
    {
      "doubleSided": true,
      "name": "Green",
      "pbrMetallicRoughness": {
        "baseColorFactor": [
          0.0,
          1.0,
          0.0,
          1.0
        ],
        "metallicFactor": 0.0,
        "roughnessFactor": 0.6
      }
    },
    {
      "doubleSided": true,
      "name": "Cyan",
      "pbrMetallicRoughness": {
        "baseColorFactor": [
          0.0,
          1.0,
          1.0,
          1.0
        ],
        "metallicFactor": 0.0,
        "roughnessFactor": 0.6
      }
    },
    {
      "doubleSided": true,
      "name": "Blue",
      "pbrMetallicRoughness": {
        "baseColorFactor": [
          0.0,
          0.0,
          1.0,
          1.0
        ],
        "metallicFactor": 0.0,
        "roughnessFactor": 0.6
      }
    },
    {
      "doubleSided": true,
      "name": "Magenta",
      "pbrMetallicRoughness": {
        "baseColorFactor": [
          1.0,
          0.0,
          1.0,
          1.0
        ],
        "metallicFactor": 0.0,
        "roughnessFactor": 0.6
      }
    }
  ],
  "meshes": [
    {
      "name": "Sphere_0",
      "primitives": [
        {
          "attributes": {
            "NORMAL": 1,
            "POSITION": 0
          },
          "indices": 2,
          "material": 0,
          "mode": 4
        }
      ]
    },
    {
      "name": "Sphere_1",
      "primitives": [
        {
          "attributes": {
            "NORMAL": 4,
            "POSITION": 3
          },
          "indices": 5,
          "material": 1,
          "mode": 4
        }
      ]
    },
    {
      "name": "Sphere_2",
      "primitives": [
        {
          "attributes": {
            "NORMAL": 7,
            "POSITION": 6
          },
          "indices": 8,
          "material": 2,
          "mode": 4
        }
      ]
    },
    {
      "name": "Sphere_3",
      "primitives": [
        {
          "attributes": {
            "NORMAL": 10,
            "POSITION": 9
          },
          "indices": 11,
          "material": 3,
          "mode": 4
        }
      ]
    },
    {
      "name": "Sphere_4",
      "primitives": [
        {
          "attributes": {
            "NORMAL": 13,
            "POSITION": 12
          },
          "indices": 14,
          "material": 4,
          "mode": 4
        }
      ]
    },
    {
      "name": "Sphere_5",
      "primitives": [
        {
          "attributes": {
            "NORMAL": 16,
            "POSITION": 15
          },
          "indices": 17,
          "material": 5,
          "mode": 4
        }
      ]
    }
  ],
  "nodes": [
    {
      "children": [
        1
      ],
      "matrix": [
        1.0,
        0.0,
        0.0,
        0.0,
        0.0,
        2.220446049250313e-16,
        -1.0,
        0.0,
        0.0,
        1.0,
        2.220446049250313e-16,
        0.0,
        0.0,
        0.0,
        0.0,
        1.0
      ],
      "name": "Sketchfab_model"
    },
    {
      "children": [
        2,
        4
      ],
      "name": "Root"
    },
    {
      "children": [
        3
      ],
      "matrix": [
        -0.29086000000000006,
        0.9551700000000001,
        -0.05519000000000001,
        0.0,
        -0.7711,
        -0.19988000000000003,
        0.6045200000000001,
        0.0,
        0.5663900000000001,
        0.21839000000000003,
        0.7946700000000001,
        0.0,
        4.076250000000001,
        1.00545,
        5.903860000000001,
        1.0
      ],
      "name": "Lamp"
    },
    {
      "name": "Lamp"
    },
    {
      "children": [
        5,
        6,
        7,
        8,
        9,
        10
      ],
      "name": "Sphere"
    },
    {
      "mesh": 0,
      "name": "Sphere_0"
    },
    {
      "mesh": 1,
      "name": "Sphere_1"
    },
    {
      "mesh": 2,
      "name": "Sphere_2"
    },
    {
      "mesh": 3,
      "name": "Sphere_3"
    },
    {
      "mesh": 4,
      "name": "Sphere_4"
    },
    {
      "mesh": 5,
      "name": "Sphere_5"
    }
  ],
  "scene": 0,
  "scenes": [
    {
      "name": "Sketchfab_Scene",
      "nodes": [
        0
      ]
    }
  ]
}
